<mxfile host="app.diagrams.net" agent="Mozilla/5.0 (Windows NT 10.0; Win64; x64) AppleWebKit/537.36 (KHTML, like Gecko) Chrome/135.0.0.0 Safari/537.36" version="26.2.13">
  <diagram name="Page-1" id="1vln9DR1V9bO1IZy5PQM">
    <mxGraphModel dx="1428" dy="751" grid="1" gridSize="10" guides="1" tooltips="1" connect="1" arrows="1" fold="1" page="1" pageScale="1" pageWidth="850" pageHeight="1100" math="0" shadow="0">
      <root>
        <mxCell id="0" />
        <mxCell id="1" parent="0" />
        <mxCell id="vVVkGMYR9eD5zjtfLxol-4" value="Client" style="points=[[0.03,0.03,0],[0.5,0,0],[0.97,0.03,0],[1,0.4,0],[0.97,0.745,0],[0.5,1,0],[0.03,0.745,0],[0,0.4,0]];verticalLabelPosition=bottom;sketch=0;html=1;verticalAlign=top;aspect=fixed;align=center;pointerEvents=1;shape=mxgraph.cisco19.workstation;fillColor=#005073;strokeColor=none;" vertex="1" parent="1">
          <mxGeometry x="50" y="310" width="110" height="88" as="geometry" />
        </mxCell>
        <mxCell id="vVVkGMYR9eD5zjtfLxol-5" value="Virtual IP" style="ellipse;shape=cloud;whiteSpace=wrap;html=1;" vertex="1" parent="1">
          <mxGeometry x="240" y="310" width="120" height="80" as="geometry" />
        </mxCell>
        <mxCell id="vVVkGMYR9eD5zjtfLxol-6" value="Active DSC Server" style="image;aspect=fixed;perimeter=ellipsePerimeter;html=1;align=center;shadow=0;dashed=0;spacingTop=3;image=img/lib/active_directory/generic_server.svg;" vertex="1" parent="1">
          <mxGeometry x="600" y="80" width="88" height="157.14" as="geometry" />
        </mxCell>
        <mxCell id="vVVkGMYR9eD5zjtfLxol-7" value="Passive DSC Server" style="image;aspect=fixed;perimeter=ellipsePerimeter;html=1;align=center;shadow=0;dashed=0;spacingTop=3;image=img/lib/active_directory/generic_server.svg;" vertex="1" parent="1">
          <mxGeometry x="600" y="430" width="88" height="157.14" as="geometry" />
        </mxCell>
        <mxCell id="vVVkGMYR9eD5zjtfLxol-9" value="" style="endArrow=classic;startArrow=classic;html=1;rounded=0;entryX=0.1;entryY=0.5;entryDx=0;entryDy=0;entryPerimeter=0;exitX=1;exitY=0.4;exitDx=0;exitDy=0;exitPerimeter=0;" edge="1" parent="1" source="vVVkGMYR9eD5zjtfLxol-4" target="vVVkGMYR9eD5zjtfLxol-5">
          <mxGeometry width="50" height="50" relative="1" as="geometry">
            <mxPoint x="170" y="398" as="sourcePoint" />
            <mxPoint x="220" y="348" as="targetPoint" />
          </mxGeometry>
        </mxCell>
        <mxCell id="vVVkGMYR9eD5zjtfLxol-11" value="" style="curved=1;endArrow=classic;html=1;rounded=0;entryX=0;entryY=0.5;entryDx=0;entryDy=0;exitX=0.625;exitY=0.2;exitDx=0;exitDy=0;exitPerimeter=0;" edge="1" parent="1" source="vVVkGMYR9eD5zjtfLxol-5" target="vVVkGMYR9eD5zjtfLxol-6">
          <mxGeometry width="50" height="50" relative="1" as="geometry">
            <mxPoint x="375" y="230" as="sourcePoint" />
            <mxPoint x="425" y="180" as="targetPoint" />
            <Array as="points">
              <mxPoint x="425" y="230" />
              <mxPoint x="375" y="180" />
            </Array>
          </mxGeometry>
        </mxCell>
        <mxCell id="vVVkGMYR9eD5zjtfLxol-13" value="" style="curved=1;endArrow=classic;html=1;rounded=0;exitX=0.55;exitY=0.95;exitDx=0;exitDy=0;exitPerimeter=0;entryX=-0.034;entryY=0.751;entryDx=0;entryDy=0;entryPerimeter=0;" edge="1" parent="1" source="vVVkGMYR9eD5zjtfLxol-5" target="vVVkGMYR9eD5zjtfLxol-7">
          <mxGeometry width="50" height="50" relative="1" as="geometry">
            <mxPoint x="360" y="510" as="sourcePoint" />
            <mxPoint x="410" y="560" as="targetPoint" />
            <Array as="points">
              <mxPoint x="410" y="510" />
              <mxPoint x="360" y="560" />
            </Array>
          </mxGeometry>
        </mxCell>
        <mxCell id="vVVkGMYR9eD5zjtfLxol-15" value="I am Down" style="shape=callout;whiteSpace=wrap;html=1;perimeter=calloutPerimeter;position2=0;" vertex="1" parent="1">
          <mxGeometry x="690" y="90" width="120" height="80" as="geometry" />
        </mxCell>
        <mxCell id="vVVkGMYR9eD5zjtfLxol-16" value="I own the VIP" style="shape=callout;whiteSpace=wrap;html=1;perimeter=calloutPerimeter;position2=0;" vertex="1" parent="1">
          <mxGeometry x="690" y="450" width="120" height="80" as="geometry" />
        </mxCell>
      </root>
    </mxGraphModel>
  </diagram>
</mxfile>
